<svg width="16" height="15" viewBox="0 0 16 15" fill="none" xmlns="http://www.w3.org/2000/svg">
<path d="M10.0449 4.1922V2.5961C10.0449 2.17279 9.90476 1.76681 9.65531 1.46749C9.40586 1.16816 9.06754 1 8.71476 1H2.33013C1.97736 1 1.63903 1.16816 1.38959 1.46749C1.14014 1.76681 1 2.17279 1 2.5961V12.1727C1 12.596 1.14014 13.002 1.38959 13.3013C1.63903 13.6006 1.97736 13.7688 2.33013 13.7688H8.71476C9.06754 13.7688 9.40586 13.6006 9.65531 13.3013C9.90476 13.002 10.0449 12.596 10.0449 12.1727V10.5766" stroke="#1D1D1D" stroke-width="1.06589" stroke-linecap="round" stroke-linejoin="round"/>
<path d="M12.1738 4.19214L14.8345 7.38479L12.1738 10.5775" stroke="#1D1D1D" stroke-width="1.06589" stroke-linecap="round" stroke-linejoin="round"/>
<path d="M5.75635 7.38403H14.8345" stroke="#1D1D1D" stroke-width="1.06589" stroke-linecap="round" stroke-linejoin="round"/>
</svg>
